<?xml version="1.0" encoding="iso-8859-1"?>
<!-- Generator: Adobe Illustrator 19.0.0, SVG Export Plug-In . SVG Version: 6.00 Build 0)  -->
<!-- License: CC0. Made by SVG Repo: https://www.svgrepo.com/svg/212218/pan -->
<svg version="1.1" id="Layer_1" xmlns="http://www.w3.org/2000/svg" xmlns:xlink="http://www.w3.org/1999/xlink" x="0px" y="0px"
	 viewBox="0 0 512 512" style="enable-background:new 0 0 512 512;" xml:space="preserve">
<g>
	<g>
		<path d="M218.239,145.822c-81.575,0-147.94,66.365-147.94,147.94s66.365,147.94,147.94,147.94s147.94-66.366,147.94-147.94
			S299.813,145.822,218.239,145.822z"/>
	</g>
</g>
<g>
	<g>
		<path d="M511.999,55.607c0-14.854-5.784-28.817-16.286-39.319C485.21,5.784,471.247,0,456.392,0
			c-14.855,0-28.819,5.784-39.32,16.287l-88.912,88.916c-33.291-19.454-71.036-29.679-109.921-29.679
			c-58.293,0-113.097,22.7-154.316,63.92C22.703,180.664,0.001,235.468,0.001,293.762s22.701,113.097,63.921,154.317
			C105.141,489.3,159.944,512,218.238,512s113.097-22.7,154.316-63.921c41.219-41.219,63.921-96.024,63.921-154.317
			c0-38.884-10.226-76.629-29.678-109.92l88.913-88.914C506.215,84.425,511.999,70.459,511.999,55.607z M218.239,472.119
			c-98.347,0-178.357-80.011-178.357-178.357s80.01-178.357,178.357-178.357s178.357,80.01,178.357,178.357
			S316.585,472.119,218.239,472.119z M471.145,70.951c-8.308,8.308-21.785,8.308-30.097,0.001c-8.309-8.315-8.309-21.79,0-30.099
			c8.307-8.308,21.788-8.308,30.097,0.002C479.455,49.164,479.454,62.642,471.145,70.951z"/>
	</g>
</g>
</svg>
